<?xml version="1.0" encoding="utf-8"?>
<!-- Generator: Adobe Illustrator 22.1.0, SVG Export Plug-In . SVG Version: 6.00 Build 0)  -->
<svg version="1.1" id="Capa_1" xmlns="http://www.w3.org/2000/svg" xmlns:xlink="http://www.w3.org/1999/xlink" x="0px" y="0px"
	 viewBox="0 0 2381.5 659.9" style="enable-background:new 0 0 2381.5 659.9;" xml:space="preserve">
<style type="text/css">
	.st0{fill:#FFFFFF;}
	.st1{fill:#FFFFFF;}
</style>
<path id="XMLID_10_" class="st1" d="M1447.6,375.7c10.3,13.4,15.5,29.9,15.5,49.2c0,16.5-3.1,31.1-9.1,43
	c-6.2,11.7-14.4,21-25.1,28.5c-10.8,7.1-22.9,12-36.9,14.8c-13.7,2.8-28.5,4.2-43.9,4.2c-33.2,0-60.4-7.5-81-22.1
	c-20.9-14.8-31.8-37.6-32.4-67.8c0-0.6,0.2-1.1,0.3-1.7h31c0,0.6,0.2,1,0.2,1.6c0,11.3,2,20.2,6.2,27.2c4,7,9.7,13,16.6,17.5
	c7.4,4.7,15.9,8,25.7,10.1c18,3.6,37.1,4.1,63.5,1.4c9.1-0.9,17.7-3.4,26.9-7.8c7.6-3.9,13.8-9.7,19-17.5c5-7.5,7.6-18.1,7.6-31.4
	c0-10.1-3.1-20.2-9.3-29.7c-6.4-9.1-15.7-15.4-28.2-19l-97.7-27.8c-17.8-4.5-31.3-12.9-41.2-25.3c-9.7-12.1-14.6-26.8-14.6-43.8
	c0-15.3,3-28.5,9-39.3c5.5-10.4,13.6-19.2,23.8-26.2c9.9-6.8,21.3-11.7,34.1-14.5c13.1-2.9,26.4-4.2,40.6-4.2
	c33,0,60.1,7.3,80.3,21.6c20.5,15,31.3,37.7,32.2,67.7c0,0.4-0.1,0.6-0.1,1H1430c0-0.3-0.1-0.6-0.1-0.9
	c-0.7-20.6-8.3-35.7-22.8-44.6c-14.9-9.5-35.2-14.4-60.3-14.4c-9,0-18.1,0.7-26.9,2.1c-8.9,1.1-16.8,3.7-24.2,7.6
	c-7.1,3.6-13,8.9-17.4,16c-4.6,6.8-6.8,16-6.8,28c0,8.5,2.8,16.4,8.8,24.1c5.9,7.5,14.5,13.1,26.4,16.9l97.4,27
	C1423,352.7,1437.8,362.2,1447.6,375.7 M1039.6,195.2c-8.4,0-17,1.2-26.4,3.5c-8.4,1.8-17.3,4.9-26.4,9.3c-8.4,4-16.2,9.1-22.8,15.1
	c-2.4,2.1-4.7,4.3-6.7,6.6l0,0.2l-0.1-0.1c0,0-0.1,0.1-0.1,0.1v-0.3L941,198.8h-14.6v314.6h30.8v-212c0-11.8,2-21.8,6.1-30.6
	c4.4-9.6,9.9-17.5,16.9-24c7.3-6.7,15.8-11.8,25.9-15.4c10.1-3.7,21.4-5.5,33.4-5.5c16.4,0,30.1,2.4,40.6,7.1
	c10.4,4.9,18.7,10.9,24.5,18c5.7,7.1,9.8,15.4,12.2,24.4c2.3,10.1,3.4,18.9,3.4,27.5v210.7h30.7V302.7c0-34.3-9.9-60.9-29.4-79.4
	C1102,204.7,1074.4,195.2,1039.6,195.2 M2209,516c27.1,0,48.4-6.8,63.4-20.2l-11.6-27.9c-11,10.5-27.5,18.4-51.8,18.4
	c-18.4,0-32.3-5.2-41.1-15.5c-9-10.6-13.5-28.4-13.5-54.4V227.5h98.6c0.3,0,0.5-0.1,0.7-0.1v-28.5c-0.3,0-0.5-0.1-0.7-0.1h-98.6
	v-95.4h-30.7v314.6c0,32.8,7.4,57.6,21.7,73.6C2160,507.8,2181.4,516,2209,516 M443.5,195.2c-0.1,0-0.2,0.1-0.3,0.1l-1.2-0.1
	c-35.1,0-62.9,9.6-83,28.5c-5.8,5.6-10.9,12.2-15.1,19.6c-4.2-7.4-9.3-14-15-19.6c-19.6-18.7-47-28.3-81.8-28.5l-2.8-0.1
	c-35.2,0-63,9.6-83,28.5c-19.8,18.6-29.8,45.6-29.8,80.1v209.5h31V303.9c0-9.6,1.1-18.6,3.4-27.5c2.3-9.2,6.4-17.3,12.4-24.9
	c5.8-7.3,14.1-13.4,24.6-18.2c10.5-4.7,24.4-7.1,40.2-7.3c0.5,0.1,1.1,0.3,2.8,0.2c16.9,0,30.8,2.4,41.3,7.1
	c10.8,4.9,19.1,11,24.7,18.2c5.9,7.1,9.8,14.9,12.4,24.7c2.3,9.9,3.4,18.9,3.4,27.6v209.5h32.6V303.9c0-8.7,1-17.8,3.3-27.4
	c2.4-9.2,6.5-17.4,12.4-24.9c6-7.3,14.3-13.4,24.8-18.2c10.5-4.7,24.4-7.1,40.5-7.2c0.5,0.1,1.1,0.2,2.6,0.1
	c16.8,0,30.6,2.4,41.2,7.1c10.3,4.7,18.7,10.8,24.7,18.1c5.9,7.6,10,15.8,12.4,24.9c2.3,9.5,3.5,18.8,3.5,27.6v209.5h31V303.9
	c0-34.5-10-61.4-29.8-80.1C506.8,204.9,479,195.2,443.5,195.2 M2047.3,512.5c1,0,1.8-0.3,2.7-0.4v-27.4c-0.9-0.1-1.7-0.4-2.7-0.4
	h-62.9V198.7h-115.2c-0.1,0-0.3,0-0.3,0v28.1c0,0,0.2,0,0.3,0h83.9v257.3h-83.9c-0.1,0-0.3,0.1-0.3,0.1v28.1c0,0,0.2,0,0.3,0H2047.3
	z M769.1,199h-115c-1.4,0-2.6,0.3-3.9,0.6v27.2c1.3,0.2,2.4,0.6,3.9,0.6h83.6v256.8h-87.5v28.2c1.3,0.3,181.2,0,181.2,0v-28.2h-62.4
	V199z M1764,258.2c5.4,13,8,27.8,8,44.1v210.1h-19.6l-9.9-24.4l-0.2,0.6v-1.4c-0.3,0.2-0.5,0.5-0.7,0.7
	c-20,18.6-47.7,28.1-82.7,28.2c-34.9-0.1-62.7-9.6-82.5-28.2c-20.2-18.8-30.4-45.6-30.4-79.6V302.3c0-16.3,2.6-31,8-44.1
	c5.4-13.4,13.1-24.8,22.9-34.1c9.4-9,21-16.2,35.7-21.6c28.4-10.1,64.7-10,92.7,0c14.5,5.5,26.5,12.8,35.7,21.7
	C1750.8,233.4,1758.5,244.9,1764,258.2 M1740,302.3c0-24.5-7-43.6-21-56.9c-13.9-13.2-34.1-19.9-60-20c-25.8,0.1-46,6.8-59.8,20
	c-14.1,13.3-21.1,32.4-21.1,56.9v105.9c0,8.3,1.1,17.3,3.5,27.3c2,8.5,5.9,16.5,12,24.4c5.8,7.1,14.1,13.2,24.3,17.8
	c10.2,4.7,24,7.1,41.1,7.1c17.5,0,30.9-2.3,41.2-7c10.4-4.7,18.5-10.7,24.3-17.9c6-7.6,9.9-15.6,12-24.3c2.3-9.6,3.5-18.8,3.5-27.4
	V302.3z"/>
</svg>
